<svg width="17" height="24" viewBox="0 0 17 24" fill="none" xmlns="http://www.w3.org/2000/svg">
<path d="M16.5903 5.76238C17.1366 5.19802 17.1366 4.30693 16.5903 3.74257C16.0293 3.19307 15.1435 3.19307 14.5825 3.74257L11.2165 7.12871H5.78354L2.4175 3.74257C1.85649 3.19307 0.97069 3.19307 0.409683 3.74257C-0.136561 4.30693 -0.136561 5.19802 0.409683 5.76238L4.72058 10.099V22.3366C4.72058 23.2574 5.45875 24 6.37408 24C7.2894 24 8.02757 23.2574 8.02757 22.3366V16.6337H8.97243V22.3366C8.97243 23.2574 9.71059 24 10.6259 24C11.5413 24 12.2794 23.2574 12.2794 22.3366V10.099L16.5903 5.76238ZM11.807 3.32673C11.807 1.48515 10.3307 0 8.5 0C6.66934 0 5.19301 1.48515 5.19301 3.32673C5.19301 5.16832 6.66934 6.65347 8.5 6.65347C10.3307 6.65347 11.807 5.16832 11.807 3.32673Z" fill="#4EC2B7"/>
</svg>
