<svg width="221" height="57" viewBox="0 0 221 57" fill="none" xmlns="http://www.w3.org/2000/svg">
<path d="M4.8166 25.4397C5.7399 17.8047 12.2879 12.1049 19.9773 12.2429L203.31 15.5332C210.771 15.6671 216.998 21.264 217.925 28.6677L218.925 36.6585C220.033 45.5101 213.218 53.3667 204.298 53.5194L18.2154 56.7053C9.11525 56.8611 1.97442 48.9423 3.06711 39.9066L4.8166 25.4397Z" fill="#71CDEE"/>
<path d="M3.53949 14.1113C4.142 6.1886 10.8181 0.110145 18.7625 0.251155L203.253 3.5258C210.888 3.6613 217.202 9.51002 217.92 17.1116L219.469 33.493C220.294 42.2146 213.5 49.7838 204.741 49.9034L17.0114 52.4682C8.19828 52.5886 1.18128 45.1207 1.84963 36.3321L3.53949 14.1113Z" fill="#FFC63F"/>
</svg>
