<svg width="33" height="44" viewBox="0 0 33 44" fill="none" xmlns="http://www.w3.org/2000/svg">
<path d="M24.75 21.3125V23.7188C24.75 24.4062 24.4062 24.75 23.7188 24.75H9.28125C8.59375 24.75 8.25 24.4062 8.25 23.7188V21.3125C8.25 20.625 8.59375 20.2812 9.28125 20.2812H23.7188C24.4062 20.2812 24.75 20.625 24.75 21.3125ZM23.7188 27.5C24.4062 27.5 24.75 27.8438 24.75 28.5312V30.9375C24.75 31.625 24.4062 31.9688 23.7188 31.9688H9.28125C8.59375 31.9688 8.25 31.625 8.25 30.9375V28.5312C8.25 27.8438 8.59375 27.5 9.28125 27.5H23.7188ZM33 11.3438V39.875C33 41.0208 32.599 41.9948 31.7969 42.7969C30.9948 43.599 30.0208 44 28.875 44H4.125C2.97917 44 2.00521 43.599 1.20312 42.7969C0.401042 41.9948 0 41.0208 0 39.875V4.125C0 2.97917 0.401042 2.00521 1.20312 1.20312C2.00521 0.401042 2.97917 0 4.125 0H21.6562C22.8021 0 23.776 0.401042 24.5781 1.20312L31.7969 8.42188C32.599 9.22396 33 10.1979 33 11.3438ZM22 4.46875V11H28.5312L22 4.46875ZM28.875 39.875V15.125H19.9375C19.3646 15.125 18.8776 14.9245 18.4766 14.5234C18.0755 14.1224 17.875 13.6354 17.875 13.0625V4.125H4.125V39.875H28.875Z" fill="#B9B9B9"/>
</svg>
