<svg width="11" height="8" viewBox="0 0 11 8" fill="none" xmlns="http://www.w3.org/2000/svg">
<path d="M10.4583 2.64583C10.5 2.60417 10.5417 2.59722 10.5833 2.625C10.6389 2.65278 10.6667 2.69444 10.6667 2.75V7C10.6667 7.27778 10.5694 7.51389 10.375 7.70833C10.1806 7.90278 9.94444 8 9.66667 8H1C0.722222 8 0.486111 7.90278 0.291667 7.70833C0.0972222 7.51389 0 7.27778 0 7V2.75C0 2.69444 0.0208333 2.65972 0.0625 2.64583C0.118056 2.61806 0.166667 2.61806 0.208333 2.64583C0.666667 2.99306 1.73611 3.77778 3.41667 5C3.44444 5.02778 3.53472 5.10417 3.6875 5.22917C3.85417 5.35417 3.98611 5.45139 4.08333 5.52083C4.18056 5.57639 4.30556 5.65278 4.45833 5.75C4.61111 5.83333 4.75694 5.89583 4.89583 5.9375C5.04861 5.97917 5.19444 6 5.33333 6C5.45833 6 5.58333 5.98611 5.70833 5.95833C5.83333 5.91667 5.95139 5.875 6.0625 5.83333C6.17361 5.77778 6.29167 5.70833 6.41667 5.625C6.54167 5.54167 6.64583 5.47222 6.72917 5.41667C6.8125 5.34722 6.90972 5.27083 7.02083 5.1875C7.13194 5.10417 7.20833 5.04167 7.25 5C8.88889 3.81944 9.95833 3.03472 10.4583 2.64583ZM5.33333 5.33333C5.22222 5.33333 5.08333 5.29861 4.91667 5.22917C4.76389 5.14583 4.63889 5.07639 4.54167 5.02083C4.44444 4.95139 4.29861 4.84722 4.10417 4.70833C3.92361 4.55556 3.82639 4.47917 3.8125 4.47917C2.11806 3.24306 0.909722 2.34722 0.1875 1.79167C0.0625 1.69444 0 1.5625 0 1.39583V1C0 0.722222 0.0972222 0.486111 0.291667 0.291667C0.486111 0.0972222 0.722222 0 1 0H9.66667C9.94444 0 10.1806 0.0972222 10.375 0.291667C10.5694 0.486111 10.6667 0.722222 10.6667 1V1.39583C10.6667 1.5625 10.6042 1.69444 10.4792 1.79167C9.79861 2.31944 8.59028 3.21528 6.85417 4.47917C6.84028 4.47917 6.73611 4.55556 6.54167 4.70833C6.36111 4.84722 6.22222 4.95139 6.125 5.02083C6.02778 5.07639 5.89583 5.14583 5.72917 5.22917C5.57639 5.29861 5.44444 5.33333 5.33333 5.33333Z" fill="#FFC63F"/>
</svg>
