<svg width="16" height="18" viewBox="0 0 16 18" fill="none" xmlns="http://www.w3.org/2000/svg">
<g filter="url(#filter0_d)">
<path d="M8 0C9.41935 0 10.7742 0.387097 12 1.09677C13.2258 1.80645 14.1935 2.77419 14.9032 4C15.6129 5.22581 16 6.58065 16 8C16 9.45161 15.6129 10.7742 14.9032 12C14.1935 13.2258 13.2258 14.2258 12 14.9355C10.7742 15.6452 9.41935 16 8 16C6.54839 16 5.22581 15.6452 4 14.9355C2.77419 14.2258 1.77419 13.2258 1.06452 12C0.354839 10.7742 0 9.45161 0 8C0 6.58065 0.354839 5.22581 1.06452 4C1.77419 2.77419 2.77419 1.80645 4 1.09677C5.22581 0.387097 6.54839 0 8 0ZM8 14.4516C9.16129 14.4516 10.2258 14.1613 11.2258 13.5806C12.1935 13 13 12.2258 13.5806 11.2258C14.1613 10.2581 14.4516 9.16129 14.4516 8C14.4516 6.83871 14.1613 5.77419 13.5806 4.77419C13 3.80645 12.1935 3 11.2258 2.41935C10.2258 1.83871 9.16129 1.54839 8 1.54839C6.83871 1.54839 5.74194 1.83871 4.77419 2.41935C3.77419 3 3 3.80645 2.41935 4.77419C1.83871 5.77419 1.54839 6.83871 1.54839 8C1.54839 9.16129 1.83871 10.2581 2.41935 11.2258C3 12.2258 3.77419 13 4.77419 13.5806C5.74194 14.1613 6.83871 14.4516 8 14.4516ZM10 11.0968C10.0645 11.1613 10.1613 11.1935 10.2903 11.1613C10.3871 11.1613 10.4839 11.0968 10.5484 11L11.129 10.1613C11.1935 10.0968 11.1935 10 11.1935 9.87097C11.1935 9.77419 11.129 9.67742 11.0645 9.6129L8.90323 8.06452V3.48387C8.90323 3.3871 8.83871 3.29032 8.77419 3.22581C8.70968 3.16129 8.6129 3.09677 8.51613 3.09677H7.48387C7.35484 3.09677 7.25806 3.16129 7.19355 3.22581C7.12903 3.29032 7.09677 3.3871 7.09677 3.48387V8.77419C7.09677 8.90323 7.12903 9.03226 7.25806 9.09677L10 11.0968Z" fill="white"/>
</g>
<defs>
<filter id="filter0_d" x="0" y="0" width="16" height="18" filterUnits="userSpaceOnUse" color-interpolation-filters="sRGB">
<feFlood flood-opacity="0" result="BackgroundImageFix"/>
<feColorMatrix in="SourceAlpha" type="matrix" values="0 0 0 0 0 0 0 0 0 0 0 0 0 0 0 0 0 0 127 0"/>
<feOffset dy="2"/>
<feColorMatrix type="matrix" values="0 0 0 0 0.94902 0 0 0 0 0.403922 0 0 0 0 0.141176 0 0 0 0.3 0"/>
<feBlend mode="normal" in2="BackgroundImageFix" result="effect1_dropShadow"/>
<feBlend mode="normal" in="SourceGraphic" in2="effect1_dropShadow" result="shape"/>
</filter>
</defs>
</svg>
