<svg width="15" height="9" viewBox="0 0 15 9" fill="none" xmlns="http://www.w3.org/2000/svg">
<path d="M14.0893 0.589286C14.0357 0.857143 13.8214 1.29464 13.4464 1.90179C13.0893 2.50893 12.7589 3.04464 12.4554 3.50893C12.1518 3.95536 11.9911 4.1875 11.9732 4.20536C11.8661 4.36607 11.8125 4.48214 11.8125 4.55357C11.8125 4.625 11.8661 4.75 11.9732 4.92857C11.9732 4.92857 12.0268 4.99107 12.1339 5.11607C12.2589 5.24107 12.4018 5.38393 12.5625 5.54464C12.7232 5.70536 12.9018 5.89286 13.0982 6.10714C13.2946 6.32143 13.4732 6.53571 13.6339 6.75C13.8125 6.94643 13.9643 7.15179 14.0893 7.36607C14.2321 7.58036 14.3304 7.75893 14.3839 7.90179C14.5089 8.34821 14.3304 8.57143 13.8482 8.57143H12.2679C12.1429 8.57143 12.0357 8.55357 11.9464 8.51786C11.8571 8.48214 11.7589 8.41964 11.6518 8.33036C11.5446 8.24107 11.4464 8.14286 11.3571 8.03571C11.2679 7.92857 11.1339 7.77679 10.9554 7.58036C10.7768 7.38393 10.5982 7.19643 10.4196 7.01786C9.70536 6.33929 9.17857 6 8.83929 6C8.625 6 8.5 6.0625 8.46429 6.1875C8.42857 6.3125 8.41071 6.66964 8.41071 7.25893C8.42857 7.54464 8.4375 7.77679 8.4375 7.95536C8.4375 8.16964 8.36607 8.33036 8.22321 8.4375C8.08036 8.52679 7.76786 8.57143 7.28571 8.57143C6.44643 8.57143 5.59821 8.32143 4.74107 7.82143C3.88393 7.32143 3.13393 6.60714 2.49107 5.67857C1.88393 4.85714 1.375 4.04464 0.964286 3.24107C0.571429 2.41964 0.3125 1.79464 0.1875 1.36607C0.0625 0.9375 0 0.633929 0 0.455357C0 0.151786 0.178571 0 0.535714 0H2.11607C2.3125 0 2.45536 0.0446429 2.54464 0.133929C2.65179 0.223214 2.74107 0.383929 2.8125 0.616072C3.1875 1.70536 3.64286 2.67857 4.17857 3.53571C4.73214 4.39286 5.15179 4.82143 5.4375 4.82143C5.54464 4.82143 5.61607 4.78571 5.65179 4.71429C5.70536 4.625 5.73214 4.46429 5.73214 4.23214V1.90179C5.71429 1.65179 5.66964 1.4375 5.59821 1.25893C5.52679 1.08036 5.45536 0.955357 5.38393 0.883929C5.3125 0.794643 5.24107 0.705357 5.16964 0.616072C5.11607 0.526786 5.08929 0.446429 5.08929 0.375C5.08929 0.303572 5.10714 0.241071 5.14286 0.1875C5.17857 0.133929 5.22321 0.0892857 5.27679 0.0535715C5.34821 0.0178572 5.41964 0 5.49107 0H7.98214C8.26786 0 8.41071 0.196429 8.41071 0.589286V3.69643C8.41071 4 8.49107 4.15179 8.65179 4.15179C8.83036 4.15179 9.08036 3.99107 9.40179 3.66964C9.74107 3.29464 10.0714 2.83929 10.3929 2.30357C10.7143 1.76786 10.9554 1.32143 11.1161 0.964286L11.3571 0.455357C11.4821 0.151786 11.7054 0 12.0268 0H13.6071C14.0357 0 14.1964 0.196429 14.0893 0.589286Z" fill="white"/>
</svg>
