<svg width="9" height="12" viewBox="0 0 9 12" fill="none" xmlns="http://www.w3.org/2000/svg">
<path d="M3.9879 11.7656C3.58602 11.1719 3.06821 10.4219 2.43448 9.51562C1.66163 8.39062 1.15155 7.63281 0.904234 7.24219C0.548723 6.67969 0.30914 6.21094 0.185484 5.83594C0.061828 5.44531 0 5 0 4.5C0 3.6875 0.200941 2.9375 0.602823 2.25C1.0047 1.5625 1.5457 1.01562 2.22581 0.609375C2.90591 0.203125 3.64785 0 4.45161 0C5.25538 0 5.99731 0.203125 6.67742 0.609375C7.35753 1.01562 7.89852 1.5625 8.3004 2.25C8.70229 2.9375 8.90323 3.6875 8.90323 4.5C8.90323 5 8.8414 5.44531 8.71774 5.83594C8.59409 6.21094 8.3545 6.67969 7.99899 7.24219C7.75168 7.63281 7.2416 8.39062 6.46875 9.51562L4.91532 11.7656C4.80712 11.9219 4.65255 12 4.45161 12C4.25067 12 4.0961 11.9219 3.9879 11.7656ZM4.45161 6.375C4.96169 6.375 5.39449 6.19531 5.75 5.83594C6.12097 5.46094 6.30645 5.01562 6.30645 4.5C6.30645 3.98438 6.12097 3.54687 5.75 3.1875C5.39449 2.8125 4.96169 2.625 4.45161 2.625C3.94153 2.625 3.50101 2.8125 3.13004 3.1875C2.77453 3.54687 2.59677 3.98438 2.59677 4.5C2.59677 5.01562 2.77453 5.46094 3.13004 5.83594C3.50101 6.19531 3.94153 6.375 4.45161 6.375Z" fill="#FD3358"/>
</svg>
