<svg width="13" height="12" viewBox="0 0 13 12" fill="none" xmlns="http://www.w3.org/2000/svg">
<path d="M11.3451 0C11.7023 0 12.0059 0.125 12.2559 0.375C12.5059 0.625 12.6309 0.928571 12.6309 1.28571V10.7143C12.6309 11.0714 12.5059 11.375 12.2559 11.625C12.0059 11.875 11.7023 12 11.3451 12H7.6755V7.92857H9.22907L9.52371 6H7.6755V4.74107C7.6755 4.0625 8.03265 3.72321 8.74693 3.72321H9.57729V2.08929C9.07729 2 8.58622 1.95536 8.10407 1.95536C7.58622 1.95536 7.13979 2.05357 6.76479 2.25C6.40764 2.44643 6.12193 2.74107 5.90765 3.13393C5.69336 3.52679 5.58621 3.99107 5.58621 4.52679V6H3.89871V7.92857H5.58621V12H1.91657C1.55943 12 1.25586 11.875 1.00586 11.625C0.755859 11.375 0.630859 11.0714 0.630859 10.7143V1.28571C0.630859 0.928571 0.755859 0.625 1.00586 0.375C1.25586 0.125 1.55943 0 1.91657 0H11.3451Z" fill="white"/>
</svg>
