<svg width="23" height="20" viewBox="0 0 23 20" fill="none" xmlns="http://www.w3.org/2000/svg">
<path fill-rule="evenodd" clip-rule="evenodd" d="M6.60039 3.9C7.26313 3.9 7.80039 3.36274 7.80039 2.7C7.80039 2.03726 7.26313 1.5 6.60039 1.5C5.93765 1.5 5.40039 2.03726 5.40039 2.7C5.40039 3.36274 5.93765 3.9 6.60039 3.9ZM6.60039 5.4C7.77606 5.4 8.77623 4.64858 9.14682 3.5998H22.2002V1.7998H9.14669C8.77598 0.751234 7.77591 0 6.60039 0C5.42487 0 4.4248 0.751234 4.05409 1.7998H0V3.5998H4.05396C4.42455 4.64858 5.42472 5.4 6.60039 5.4ZM7.80039 17.3001C7.80039 17.9628 7.26313 18.5001 6.60039 18.5001C5.93765 18.5001 5.40039 17.9628 5.40039 17.3001C5.40039 16.6374 5.93765 16.1001 6.60039 16.1001C7.26313 16.1001 7.80039 16.6374 7.80039 17.3001ZM9.14683 18.1999C8.77623 19.2487 7.77606 20.0001 6.60039 20.0001C5.42472 20.0001 4.42455 19.2487 4.05396 18.1999H0V16.3999H4.05409C4.4248 15.3513 5.42487 14.6001 6.60039 14.6001C7.77591 14.6001 8.77598 15.3513 9.14669 16.3999H22.2002V18.1999H9.14683ZM13.0536 9.1H0V10.9H13.0536C13.4243 11.9487 14.4244 12.7 15.6 12.7C16.7756 12.7 17.7757 11.9487 18.1464 10.9H22.2V9.1H18.1464C17.7757 8.05133 16.7756 7.3 15.6 7.3C14.4244 7.3 13.4243 8.05133 13.0536 9.1ZM16.8 10C16.8 10.6627 16.2627 11.2 15.6 11.2C14.9373 11.2 14.4 10.6627 14.4 10C14.4 9.33726 14.9373 8.8 15.6 8.8C16.2627 8.8 16.8 9.33726 16.8 10Z" fill="#FD3358"/>
</svg>
