<svg width="13" height="12" viewBox="0 0 13 12" fill="none" xmlns="http://www.w3.org/2000/svg">
<path d="M4.119 3.83036C4.72615 3.22321 5.45829 2.91964 6.31543 2.91964C7.17257 2.91964 7.89579 3.22321 8.48507 3.83036C9.09222 4.41964 9.39579 5.14286 9.39579 6C9.39579 6.85714 9.09222 7.58929 8.48507 8.19643C7.89579 8.78572 7.17257 9.08036 6.31543 9.08036C5.45829 9.08036 4.72615 8.78572 4.119 8.19643C3.52972 7.58929 3.23507 6.85714 3.23507 6C3.23507 5.14286 3.52972 4.41964 4.119 3.83036ZM4.89579 7.41964C5.28864 7.8125 5.76186 8.00893 6.31543 8.00893C6.869 8.00893 7.34222 7.8125 7.73507 7.41964C8.12793 7.02679 8.32436 6.55357 8.32436 6C8.32436 5.44643 8.12793 4.97321 7.73507 4.58036C7.34222 4.1875 6.869 3.99107 6.31543 3.99107C5.76186 3.99107 5.28864 4.1875 4.89579 4.58036C4.50293 4.97321 4.3065 5.44643 4.3065 6C4.3065 6.55357 4.50293 7.02679 4.89579 7.41964ZM10.0119 2.30357C10.1547 2.42857 10.2261 2.58929 10.2261 2.78571C10.2261 2.98214 10.1547 3.15179 10.0119 3.29464C9.88686 3.4375 9.72614 3.50893 9.52972 3.50893C9.33329 3.50893 9.16364 3.4375 9.02079 3.29464C8.87793 3.15179 8.8065 2.98214 8.8065 2.78571C8.8065 2.58929 8.87793 2.42857 9.02079 2.30357C9.16364 2.16071 9.33329 2.08929 9.52972 2.08929C9.72614 2.08929 9.88686 2.16071 10.0119 2.30357ZM12.2886 3.53571C12.3065 4.01786 12.3154 4.83929 12.3154 6C12.3154 7.16071 12.3065 7.98214 12.2886 8.46429C12.2351 9.55357 11.9047 10.4018 11.2976 11.0089C10.7083 11.5982 9.869 11.9107 8.77972 11.9464C8.29757 11.9821 7.47614 12 6.31543 12C5.15472 12 4.33329 11.9821 3.85114 11.9464C2.76186 11.8929 1.92257 11.5714 1.33329 10.9821C1.10114 10.7679 0.913643 10.5179 0.770786 10.2321C0.627929 9.94643 0.520788 9.66964 0.44936 9.40179C0.395788 9.13393 0.368999 8.82143 0.368999 8.46429C0.333285 7.98214 0.31543 7.16071 0.31543 6C0.31543 4.83929 0.333285 4.00893 0.368999 3.50893C0.422571 2.4375 0.744001 1.60714 1.33329 1.01786C1.92257 0.410714 2.76186 0.0803571 3.85114 0.0267857C4.33329 0.00892857 5.15472 0 6.31543 0C7.47614 0 8.29757 0.00892857 8.77972 0.0267857C9.869 0.0803571 10.7083 0.410714 11.2976 1.01786C11.9047 1.60714 12.2351 2.44643 12.2886 3.53571ZM11.0029 9.53571C11.0565 9.39286 11.1011 9.21429 11.1369 9C11.1726 8.76786 11.1994 8.5 11.2172 8.19643C11.2351 7.875 11.244 7.61607 11.244 7.41964C11.244 7.22321 11.244 6.94643 11.244 6.58929C11.244 6.23214 11.244 6.03571 11.244 6C11.244 5.94643 11.244 5.75 11.244 5.41071C11.244 5.05357 11.244 4.77679 11.244 4.58036C11.244 4.38393 11.2351 4.13393 11.2172 3.83036C11.1994 3.50893 11.1726 3.24107 11.1369 3.02679C11.1011 2.79464 11.0565 2.60714 11.0029 2.46429C10.7886 1.91071 10.4047 1.52679 9.85114 1.3125C9.70829 1.25893 9.52079 1.21429 9.28864 1.17857C9.07436 1.14286 8.8065 1.11607 8.48507 1.09821C8.1815 1.08036 7.9315 1.07143 7.73507 1.07143C7.5565 1.07143 7.27972 1.07143 6.90472 1.07143C6.54757 1.07143 6.35114 1.07143 6.31543 1.07143C6.27972 1.07143 6.08329 1.07143 5.72614 1.07143C5.369 1.07143 5.09222 1.07143 4.89579 1.07143C4.69936 1.07143 4.44043 1.08036 4.119 1.09821C3.81543 1.11607 3.54757 1.14286 3.31543 1.17857C3.10114 1.21429 2.92257 1.25893 2.77972 1.3125C2.22615 1.52679 1.84222 1.91071 1.62793 2.46429C1.57436 2.60714 1.52972 2.79464 1.494 3.02679C1.45829 3.24107 1.4315 3.50893 1.41364 3.83036C1.39579 4.13393 1.38686 4.38393 1.38686 4.58036C1.38686 4.75893 1.38686 5.03571 1.38686 5.41071C1.38686 5.76786 1.38686 5.96429 1.38686 6C1.38686 6.07143 1.38686 6.24107 1.38686 6.50893C1.38686 6.75893 1.38686 6.97321 1.38686 7.15179C1.38686 7.3125 1.38686 7.52679 1.38686 7.79464C1.40472 8.0625 1.42257 8.29464 1.44043 8.49107C1.45829 8.66964 1.48507 8.85714 1.52079 9.05357C1.5565 9.25 1.59222 9.41071 1.62793 9.53571C1.86007 10.0893 2.244 10.4732 2.77972 10.6875C2.92257 10.7411 3.10114 10.7857 3.31543 10.8214C3.54757 10.8571 3.81543 10.8839 4.119 10.9018C4.44043 10.9196 4.69043 10.9286 4.869 10.9286C5.06543 10.9286 5.34222 10.9286 5.69936 10.9286C6.07436 10.9286 6.27972 10.9286 6.31543 10.9286C6.369 10.9286 6.56543 10.9286 6.90472 10.9286C7.26186 10.9286 7.53864 10.9286 7.73507 10.9286C7.9315 10.9286 8.1815 10.9196 8.48507 10.9018C8.8065 10.8839 9.07436 10.8571 9.28864 10.8214C9.52079 10.7857 9.70829 10.7411 9.85114 10.6875C10.4047 10.4554 10.7886 10.0714 11.0029 9.53571Z" fill="white"/>
</svg>
