<svg width="23" height="33" viewBox="0 0 23 33" fill="none" xmlns="http://www.w3.org/2000/svg">
<g filter="url(#filter0_d)">
<path d="M10.2125 29.4141C10.45 29.8242 10.8656 30 11.4 30C11.875 30 12.2906 29.8242 12.5875 29.4141L16.5656 23.7891C18.525 20.9766 19.8312 19.1016 20.4844 18.1055C21.375 16.6992 21.9687 15.5273 22.325 14.5898C22.6219 13.6523 22.8 12.5391 22.8 11.25C22.8 9.25781 22.2656 7.38281 21.2562 5.625C20.1875 3.92578 18.8219 2.57812 17.1 1.52344C15.3187 0.527344 13.4187 0 11.4 0C9.32187 0 7.42187 0.527344 5.7 1.52344C3.91875 2.57812 2.55312 3.92578 1.54375 5.625C0.475 7.38281 0 9.25781 0 11.25C0 12.5391 0.11875 13.6523 0.475 14.5898C0.771875 15.5273 1.36562 16.6992 2.31562 18.1055C2.90937 19.1016 4.21562 20.9766 6.23437 23.7891C7.8375 26.0742 9.14375 27.9492 10.2125 29.4141ZM11.4 15.9375C10.0937 15.9375 8.96562 15.5273 8.01562 14.5898C7.06562 13.6523 6.65 12.5391 6.65 11.25C6.65 9.96094 7.06562 8.90625 8.01562 7.96875C8.96562 7.03125 10.0937 6.5625 11.4 6.5625C12.7062 6.5625 13.775 7.03125 14.725 7.96875C15.675 8.90625 16.15 9.96094 16.15 11.25C16.15 12.5391 15.675 13.6523 14.725 14.5898C13.775 15.5273 12.7062 15.9375 11.4 15.9375Z" fill="white"/>
</g>
<defs>
<filter id="filter0_d" x="0" y="0" width="22.8" height="33" filterUnits="userSpaceOnUse" color-interpolation-filters="sRGB">
<feFlood flood-opacity="0" result="BackgroundImageFix"/>
<feColorMatrix in="SourceAlpha" type="matrix" values="0 0 0 0 0 0 0 0 0 0 0 0 0 0 0 0 0 0 127 0"/>
<feOffset dy="3"/>
<feColorMatrix type="matrix" values="0 0 0 0 0.94902 0 0 0 0 0.403922 0 0 0 0 0.141176 0 0 0 0.3 0"/>
<feBlend mode="normal" in2="BackgroundImageFix" result="effect1_dropShadow"/>
<feBlend mode="normal" in="SourceGraphic" in2="effect1_dropShadow" result="shape"/>
</filter>
</defs>
</svg>
