<svg width="12" height="18" viewBox="0 0 12 18" fill="none" xmlns="http://www.w3.org/2000/svg">
<g filter="url(#filter0_d)">
<path d="M5.375 15.6875C5.5 15.9063 5.71875 16 6 16C6.25 16 6.46875 15.9063 6.625 15.6875L8.71875 12.6875C9.75 11.1875 10.4375 10.1875 10.7813 9.65625C11.25 8.90625 11.5625 8.28125 11.75 7.78125C11.9063 7.28125 12 6.6875 12 6C12 4.9375 11.7188 3.9375 11.1875 3C10.625 2.09375 9.90625 1.375 9 0.8125C8.0625 0.28125 7.0625 0 6 0C4.90625 0 3.90625 0.28125 3 0.8125C2.0625 1.375 1.34375 2.09375 0.8125 3C0.25 3.9375 0 4.9375 0 6C0 6.6875 0.0625 7.28125 0.25 7.78125C0.40625 8.28125 0.71875 8.90625 1.21875 9.65625C1.53125 10.1875 2.21875 11.1875 3.28125 12.6875C4.125 13.9063 4.8125 14.9063 5.375 15.6875ZM6 8.5C5.3125 8.5 4.71875 8.28125 4.21875 7.78125C3.71875 7.28125 3.5 6.6875 3.5 6C3.5 5.3125 3.71875 4.75 4.21875 4.25C4.71875 3.75 5.3125 3.5 6 3.5C6.6875 3.5 7.25 3.75 7.75 4.25C8.25 4.75 8.5 5.3125 8.5 6C8.5 6.6875 8.25 7.28125 7.75 7.78125C7.25 8.28125 6.6875 8.5 6 8.5Z" fill="white"/>
</g>
<defs>
<filter id="filter0_d" x="0" y="0" width="12" height="18" filterUnits="userSpaceOnUse" color-interpolation-filters="sRGB">
<feFlood flood-opacity="0" result="BackgroundImageFix"/>
<feColorMatrix in="SourceAlpha" type="matrix" values="0 0 0 0 0 0 0 0 0 0 0 0 0 0 0 0 0 0 127 0"/>
<feOffset dy="2"/>
<feColorMatrix type="matrix" values="0 0 0 0 0.94902 0 0 0 0 0.403922 0 0 0 0 0.141176 0 0 0 0.3 0"/>
<feBlend mode="normal" in2="BackgroundImageFix" result="effect1_dropShadow"/>
<feBlend mode="normal" in="SourceGraphic" in2="effect1_dropShadow" result="shape"/>
</filter>
</defs>
</svg>
