<svg width="8" height="12" viewBox="0 0 8 12" fill="none" xmlns="http://www.w3.org/2000/svg">
<path d="M6.25161 0C6.55806 0 6.81855 0.109375 7.03306 0.328125C7.24758 0.546875 7.35484 0.8125 7.35484 1.125V10.875C7.35484 11.1875 7.24758 11.4531 7.03306 11.6719C6.81855 11.8906 6.55806 12 6.25161 12H1.10323C0.796774 12 0.53629 11.8906 0.321774 11.6719C0.107258 11.4531 0 11.1875 0 10.875V1.125C0 0.8125 0.107258 0.546875 0.321774 0.328125C0.53629 0.109375 0.796774 0 1.10323 0H6.25161ZM3.14879 11.0156C3.30202 11.1719 3.47823 11.25 3.67742 11.25C3.87661 11.25 4.04516 11.1719 4.18306 11.0156C4.33629 10.875 4.4129 10.7031 4.4129 10.5C4.4129 10.2969 4.33629 10.125 4.18306 9.98438C4.04516 9.82812 3.87661 9.75 3.67742 9.75C3.47823 9.75 3.30202 9.82812 3.14879 9.98438C3.01089 10.125 2.94194 10.2969 2.94194 10.5C2.94194 10.7031 3.01089 10.875 3.14879 11.0156ZM6.25161 8.71875V1.40625C6.25161 1.21875 6.15968 1.125 5.97581 1.125H1.37903C1.19516 1.125 1.10323 1.21875 1.10323 1.40625V8.71875C1.10323 8.90625 1.19516 9 1.37903 9H5.97581C6.15968 9 6.25161 8.90625 6.25161 8.71875Z" fill="#FD3358"/>
</svg>
