<svg width="10" height="10" viewBox="0 0 10 10" fill="none" xmlns="http://www.w3.org/2000/svg">
<path d="M5 0C2.23958 0 0 2.23958 0 5C0 7.76042 2.23958 10 5 10C7.76042 10 10 7.76042 10 5C10 2.23958 7.76042 0 5 0ZM6.78385 3.39193C6.85547 3.34635 6.97266 3.28776 7.0638 3.3138C7.13542 3.33333 7.19401 3.35938 7.10937 3.41797C7.07031 3.44401 7.01172 3.41797 6.96615 3.43099C7.02474 3.44401 7.10937 3.47005 7.08333 3.52865C7.2526 3.6263 7.03125 3.74349 6.92057 3.73047C6.97266 3.73698 6.8099 3.83464 6.8099 3.82813C6.7513 3.86068 6.67318 3.86068 6.6276 3.91927C6.57552 3.99089 6.64714 4.11458 6.54948 4.08854C6.51042 4.17318 6.36068 4.1276 6.29557 4.21875C6.36719 4.29688 6.22396 4.40755 6.15234 4.3099C6.08724 4.33594 6.11979 4.40755 6.05469 4.44661C6.08073 4.48568 6.08724 4.52474 6.04167 4.55078C6.05469 4.54427 6.13281 4.60938 6.15234 4.61589C6.13932 4.64844 6.11328 4.67448 6.08073 4.67448C6.11328 4.75911 6.04167 4.85026 5.98307 4.90234C5.91797 4.95443 5.76823 5.00651 5.7487 5.01953C5.63151 5.13021 5.55339 5.29297 5.76172 5.33854C5.76823 5.33854 5.76823 5.55339 5.77474 5.5599C5.78776 5.63802 5.82031 5.86589 5.68359 5.78125C5.61849 5.7487 5.57943 5.56641 5.5599 5.49479C5.54036 5.41667 5.53385 5.41667 5.48177 5.33854C5.39714 5.4362 5.38411 5.36458 5.3125 5.31901C5.24089 5.27995 5.13672 5.29297 5.09766 5.25391C5 5.32552 4.92839 5.30599 4.90885 5.19531C4.88281 5.2474 4.9349 5.32552 4.92839 5.34505C4.89583 5.41016 4.83724 5.39714 4.78516 5.35807C4.70052 5.29297 4.51823 5.40365 4.42057 5.35807C4.42708 5.35807 4.45312 5.38411 4.47266 5.39714C4.45312 5.47526 4.40755 5.42969 4.36849 5.45573C4.32292 5.48828 4.28385 5.55339 4.24479 5.58594C4.32943 5.7487 4.23828 5.90495 4.24479 6.08073C4.24479 6.21094 4.32943 6.4388 4.45312 6.51042C4.51172 6.54297 4.70703 6.55599 4.76562 6.52995C4.85677 6.49089 4.84375 6.41927 4.8763 6.34115C4.90885 6.25651 4.94792 6.21745 5.04557 6.21094C5.32552 6.19792 5.11068 6.42578 5.07812 6.54297C5.05859 6.6276 5.05208 6.72526 5.03906 6.80339C5.07161 6.81641 5.10417 6.8099 5.13672 6.8099C5.13672 6.78385 5.15625 6.7513 5.15625 6.73177C5.19531 6.79688 5.32552 6.81641 5.36458 6.73828C5.41016 6.81641 5.5013 6.875 5.51432 6.96615C5.52734 7.05729 5.61198 7.15495 5.48828 7.15495C5.39714 7.15495 5.5013 7.33724 5.51432 7.36979C5.58594 7.5 5.70312 7.55208 5.83333 7.48698C5.83333 7.53906 5.8138 7.68229 5.74219 7.69531C5.67708 7.70833 5.55339 7.57161 5.57943 7.5C5.57292 7.52604 5.55339 7.54557 5.53385 7.55859C5.46875 7.48047 5.35807 7.44141 5.29948 7.36328C5.28646 7.34375 5.11068 7.07682 5.14974 7.0638C5.05859 7.10286 4.8763 7.03776 4.79167 6.99219C4.65495 6.92057 4.63542 6.73177 4.46615 6.75781C4.34896 6.77734 4.31641 6.82292 4.17969 6.77083C4.08854 6.73828 4.01042 6.67318 3.91927 6.6276C3.8151 6.56901 3.63281 6.51042 3.59375 6.38021C3.55469 6.27604 3.56771 6.15234 3.50911 6.05469C3.47005 5.98958 3.35286 5.85938 3.26823 5.85938C3.34635 5.85938 3.19661 5.66406 3.17708 5.64453C3.10547 5.5599 2.84505 5.33203 2.89714 5.20182C2.91016 5.18229 2.76693 5.13021 2.74089 5.1237C2.76693 5.1888 2.77344 5.26042 2.80599 5.31901C2.83854 5.38411 2.8776 5.44271 2.91667 5.50781C2.98828 5.625 3.08594 5.76823 3.07292 5.91146C2.98828 5.9375 3.01432 5.8138 2.98828 5.76172C2.94271 5.67708 2.81901 5.67708 2.78646 5.58594C2.79948 5.57943 2.80599 5.57943 2.81901 5.57292C2.82552 5.46224 2.66276 5.37109 2.6888 5.29297C2.59766 5.22135 2.59766 5.08464 2.53255 4.99349C2.47396 4.90885 2.3763 4.86979 2.29167 4.8112C2.25911 4.79167 2.02474 4.49219 2.10938 4.47266C1.97917 4.50521 1.91406 4.19922 1.93359 4.12109C1.93359 4.12109 1.92057 4.12109 1.92057 4.11458C1.94661 4.03646 1.90104 3.63281 2.00521 3.6263C1.93359 3.63281 1.91406 3.45703 1.93359 3.42448C1.94661 3.39844 2.04427 3.49609 2.05078 3.50911C2.08984 3.48958 2.12891 3.4375 2.11589 3.39193C2.09635 3.33984 2.02474 3.29427 1.97917 3.25521C1.95964 3.24219 1.69922 3.07292 1.69271 3.07943C1.71875 3.03385 1.71224 2.98828 1.67318 2.95573C1.54948 3.05339 1.61458 2.86458 1.54948 2.84505C1.52344 2.83854 1.4974 2.81901 1.47135 2.79297C1.84896 2.19401 2.3763 1.69271 3.0013 1.34766C3.04036 1.34115 3.09245 1.34115 3.14453 1.34115C3.26172 1.35417 3.32682 1.45182 3.41146 1.51042C3.42448 1.47786 3.39844 1.42578 3.37891 1.39323C3.39844 1.34115 3.47656 1.32812 3.52214 1.3151C3.58073 1.30859 3.66536 1.29557 3.71745 1.32161C3.67839 1.26302 3.63281 1.21094 3.58724 1.15885C3.58073 1.16536 3.5612 1.17839 3.55469 1.19141C3.48307 1.13281 3.34635 1.21094 3.28125 1.23698C3.22917 1.26302 3.18359 1.29557 3.13151 1.3151C3.09896 1.32812 3.07943 1.32812 3.05339 1.32161C3.2487 1.21745 3.45052 1.1263 3.66536 1.05469C3.70443 1.08073 3.74349 1.1263 3.80208 1.17188C3.76302 1.13932 3.76302 1.28906 3.77604 1.3151C3.84766 1.41276 4.00391 1.34766 4.10156 1.34766C4.09505 1.34766 4.38802 1.38672 4.32943 1.3151C4.375 1.38021 4.375 1.47786 4.43359 1.53646C4.49219 1.47786 4.40755 1.41276 4.44661 1.35417C4.45964 1.32812 4.57682 1.29557 4.61589 1.27604C4.66146 1.24349 4.58333 1.19792 4.5638 1.1849C4.4987 1.14583 4.24479 1.1263 4.36849 0.976563C4.41406 0.924479 4.57682 0.950521 4.62891 0.983073C4.70052 1.02214 4.77865 1.09375 4.68099 1.15885C4.72656 1.16536 4.94141 1.22396 4.90885 1.30859C4.92839 1.26953 4.96094 1.21094 5.01302 1.21094C5.07161 1.21745 5.08464 1.35417 5.11068 1.38672C5.20182 1.54948 5.35807 1.22396 5.38411 1.23698C5.26693 1.19141 5.48828 1.13281 5.54688 1.15234C5.59245 1.17188 5.66406 1.32812 5.57943 1.32161C5.65104 1.38672 5.65755 1.52995 5.52734 1.52344C5.4362 1.51693 5.33203 1.39323 5.2474 1.49089C5.1888 1.55599 5.16276 1.65365 5.10417 1.71224C5.01302 1.80339 4.88932 1.79688 4.77865 1.78385C4.82422 1.79036 4.68099 1.9401 4.66797 1.96615C4.62891 2.01172 4.60286 2.0638 4.58984 2.11589C4.57682 2.18099 4.58984 2.2526 4.55729 2.31771C4.66797 2.28516 4.72656 2.48698 4.68099 2.49349C4.81771 2.47396 4.92839 2.47396 5.05859 2.51953C5.14974 2.55208 5.28646 2.59115 5.32552 2.6888C5.35156 2.64974 5.47526 2.66927 5.51432 2.68229C5.59245 2.72135 5.59896 2.80599 5.61849 2.8776C5.64453 2.97526 5.72917 3.13802 5.83984 3.08594C5.85938 3.07292 6.0026 3.00781 5.95052 2.96875C5.89844 2.92318 5.83984 2.80599 5.89193 2.74089C5.94401 2.66927 6.06771 2.64974 6.10026 2.55859C6.15234 2.40885 5.94401 2.42839 5.94401 2.31771C5.94401 2.2526 6.02865 2.23307 6.02214 2.15495C6.02214 2.08984 5.92448 1.95964 6.0026 1.91406C6.06771 1.875 6.38021 1.9401 6.4388 1.97917C6.4974 2.01823 6.67969 2.07031 6.69271 2.12891C6.67969 2.12891 6.67318 2.12891 6.66016 2.12891C6.71224 2.17448 6.75781 2.27214 6.66667 2.29818C6.72526 2.28516 6.89453 2.35026 6.77734 2.38932C6.81641 2.36979 6.84896 2.38281 6.88802 2.35677C6.93359 2.33073 6.95964 2.28516 7.01823 2.31771C7.03125 2.32422 7.10286 2.18099 7.14193 2.1875C7.20052 2.19401 7.21354 2.27865 7.23958 2.31771C7.26562 2.3763 7.33724 2.39583 7.36328 2.45443C7.40885 2.5651 7.38932 2.66927 7.53906 2.70833C7.58464 2.72135 7.70833 2.64974 7.70182 2.7474C7.72786 2.72135 7.74089 2.70182 7.74089 2.69531C7.7474 2.78646 7.78646 2.89062 7.89714 2.8776C7.89714 2.8776 7.89714 3.0013 7.88411 3.02083C7.84505 3.07943 7.7474 3.06641 7.6888 3.09896C7.66927 3.10547 7.51302 3.24219 7.53255 3.26172C7.44792 3.16406 7.3112 3.16406 7.20052 3.1901C7.08333 3.20964 6.97266 3.22266 6.86198 3.26823C6.8099 3.29427 6.75781 3.32031 6.71875 3.36589C6.69922 3.39193 6.66667 3.50911 6.63411 3.51562C6.69922 3.5026 6.73177 3.43099 6.78385 3.39193ZM5.72266 9.10156C5.71615 9.06901 5.70964 9.00391 5.70964 8.9974C5.70312 8.89323 5.8138 8.82162 5.80729 8.72396C5.73568 8.70443 5.71615 8.63281 5.72917 8.55469C5.74219 8.44401 5.83984 8.36589 5.91797 8.29427C5.99609 8.22266 6.01562 8.07292 5.99609 7.98177C5.96354 7.82552 5.96354 7.66276 5.9375 7.50651C5.94401 7.54557 6.05469 7.53255 6.07422 7.58464C6.10026 7.53906 6.11328 7.48047 6.14583 7.4349C6.17188 7.39583 6.21745 7.38281 6.25651 7.35026C6.32161 7.3112 6.45833 7.16146 6.53646 7.2526C6.60156 7.33073 6.4388 7.41536 6.52344 7.48698C6.54948 7.4349 6.52344 7.35677 6.57552 7.30469C6.67969 7.1875 6.7513 7.31771 6.85547 7.35026C6.96615 7.38281 7.00521 7.42188 7.08984 7.49349C7.0638 7.46745 7.19401 7.42188 7.20703 7.41536C7.33073 7.38932 7.38281 7.46094 7.46745 7.52604C7.55859 7.59115 7.70182 7.63672 7.6888 7.76693C7.75391 7.77995 7.79297 7.79948 7.84505 7.81901C7.89714 7.84505 7.96875 7.83203 8.00781 7.87109C7.40885 8.5026 6.61458 8.94531 5.72266 9.10156Z" fill="#FD3358"/>
</svg>
