<svg width="14" height="14" viewBox="0 0 14 14" fill="none" xmlns="http://www.w3.org/2000/svg">
<path d="M7 0C8.24193 0 9.42742 0.33871 10.5 0.959677C11.5726 1.58065 12.4194 2.42742 13.0403 3.5C13.6613 4.57258 14 5.75806 14 7C14 8.27016 13.6613 9.42742 13.0403 10.5C12.4194 11.5726 11.5726 12.4476 10.5 13.0685C9.42742 13.6895 8.24193 14 7 14C5.72984 14 4.57258 13.6895 3.5 13.0685C2.42742 12.4476 1.55242 11.5726 0.931452 10.5C0.310484 9.42742 0 8.27016 0 7C0 5.75806 0.310484 4.57258 0.931452 3.5C1.55242 2.42742 2.42742 1.58065 3.5 0.959677C4.57258 0.33871 5.72984 0 7 0ZM7 12.6452C8.01613 12.6452 8.94758 12.3911 9.82258 11.8831C10.6694 11.375 11.375 10.6976 11.8831 9.82258C12.3911 8.97581 12.6452 8.01613 12.6452 7C12.6452 5.98387 12.3911 5.05242 11.8831 4.17742C11.375 3.33065 10.6694 2.625 9.82258 2.11694C8.94758 1.60887 8.01613 1.35484 7 1.35484C5.98387 1.35484 5.02419 1.60887 4.17742 2.11694C3.30242 2.625 2.625 3.33065 2.11694 4.17742C1.60887 5.05242 1.35484 5.98387 1.35484 7C1.35484 8.01613 1.60887 8.97581 2.11694 9.82258C2.625 10.6976 3.30242 11.375 4.17742 11.8831C5.02419 12.3911 5.98387 12.6452 7 12.6452ZM8.75 9.70968C8.80645 9.76613 8.89113 9.79435 9.00403 9.76613C9.08871 9.76613 9.17339 9.70968 9.22984 9.625L9.7379 8.89113C9.79435 8.83468 9.79435 8.75 9.79435 8.6371C9.79435 8.55242 9.7379 8.46774 9.68145 8.41129L7.79032 7.05645V3.04839C7.79032 2.96371 7.73387 2.87903 7.67742 2.82258C7.62097 2.76613 7.53629 2.70968 7.45161 2.70968H6.54839C6.43548 2.70968 6.35081 2.76613 6.29435 2.82258C6.2379 2.87903 6.20968 2.96371 6.20968 3.04839V7.67742C6.20968 7.79032 6.2379 7.90323 6.35081 7.95968L8.75 9.70968Z" fill="#FD3358"/>
</svg>
