<svg width="16" height="12" viewBox="0 0 16 12" fill="none" xmlns="http://www.w3.org/2000/svg">
<path d="M14.9925 2.46429C15.046 2.67858 15.0907 2.94643 15.1264 3.26786C15.18 3.58929 15.2157 3.91072 15.2335 4.23215C15.2514 4.53572 15.2603 4.82143 15.2603 5.08929C15.2782 5.35715 15.2871 5.58036 15.2871 5.75893V6C15.2871 7.60715 15.1889 8.79465 14.9925 9.5625C14.9032 9.86608 14.7425 10.1339 14.5103 10.3661C14.2782 10.5982 14.0014 10.7589 13.68 10.8482C13.3407 10.9375 12.6978 11.0089 11.7514 11.0625C10.805 11.0982 9.9389 11.125 9.15318 11.1429H7.97461C4.92104 11.1429 3.01925 11.0446 2.26925 10.8482C1.57282 10.6518 1.13532 10.2232 0.956749 9.5625C0.867463 9.22322 0.796034 8.75893 0.742462 8.16965C0.706748 7.5625 0.679967 7.05358 0.662109 6.64286V6C0.662109 4.41072 0.76032 3.23215 0.956749 2.46429C1.04603 2.14286 1.20675 1.86608 1.4389 1.63393C1.67104 1.40179 1.94782 1.24108 2.26925 1.15179C2.60853 1.0625 3.25139 1 4.19782 0.96429C5.14425 0.910719 6.01032 0.875004 6.79604 0.857147H7.97461C11.0282 0.857147 12.93 0.955362 13.68 1.15179C14.0014 1.24108 14.2782 1.40179 14.5103 1.63393C14.7425 1.86608 14.9032 2.14286 14.9925 2.46429ZM6.47461 8.19643L10.305 6L6.47461 3.83036V8.19643Z" fill="white"/>
</svg>
